<svg xmlns="http://www.w3.org/2000/svg" width="22.306" height="16.758" viewBox="0 0 22.306 16.758">
  <g id="create_customer" transform="translate(-1360.557 -328.241)">
    <path id="Path_5253" data-name="Path 5253" d="M1454.286,332.716a4.334,4.334,0,1,1,4.292,4.421A4.328,4.328,0,0,1,1454.286,332.716Zm4.318-3.02a3.093,3.093,0,1,0,3.123,3.1A3.111,3.111,0,0,0,1458.6,329.7Z" transform="translate(-83.57)" fill="#797884" stroke="#fff" stroke-width="0.4"/>
    <path id="Path_5254" data-name="Path 5254" d="M1438.059,423.05H1436.8c0-.728,0-1.431,0-2.135a3.476,3.476,0,0,0-3.58-3.656q-2.818-.036-5.637,0a3.475,3.475,0,0,0-3.491,3.531c-.008.741,0,1.481,0,2.253h-1.336a24.218,24.218,0,0,1,.3-3.586,4.508,4.508,0,0,1,4.4-3.424c1.985-.022,3.971-.027,5.956,0a4.692,4.692,0,0,1,4.637,4.656C1438.069,421.468,1438.059,422.243,1438.059,423.05Z" transform="translate(-55.4 -78.25)" fill="#797884" stroke="#fff" stroke-width="0.4"/>
    <path id="Path_5255" data-name="Path 5255" d="M1363.9,369.382V366.25h1.194v3.1h3.139v1.229h-3.121V373.7h-1.2V370.6h-3.151v-1.214Z" transform="translate(0 -33.783)" fill="#797884" stroke="#fff" stroke-width="0.4"/>
  </g>
</svg>
