<svg id="notes" xmlns="http://www.w3.org/2000/svg" width="36.954" height="42.113" viewBox="0 0 36.954 42.113">
  <path id="Path_86" data-name="Path 86" d="M54.062,48.706h.412a.491.491,0,0,0,0-.983H38.28V15.972H57.641V23.22a.468.468,0,0,0,.444.491h6.968V42.843a.491.491,0,0,0,.983,0V23.187a.468.468,0,0,0-.023-.117.138.138,0,0,0,0-.047.393.393,0,0,0-.089-.145h0l-.047-.047L58.5,15.139a.468.468,0,0,0-.388-.15H37.788a.468.468,0,0,0-.468.468V47.742H32.085a.468.468,0,0,0-.469.467c0,.008,0,.016,0,.024,0,3.444,2.456,6.251,5.474,6.251H54.5a.491.491,0,1,0,0-.983H37.068c-2.34,0-4.263-2.1-4.473-4.777H54.062ZM58.619,16.73l5.751,6H58.619Z" transform="translate(-31.616 -14.987)" fill="#0196fd"/>
  <path id="Path_87" data-name="Path 87" d="M107.881,110.366V96.048a.468.468,0,0,0-.468-.468H84.645a.468.468,0,0,0-.468.468v14.318a.468.468,0,0,0,.444.491h22.774a.468.468,0,0,0,.487-.448C107.882,110.394,107.882,110.38,107.881,110.366ZM106.9,98.425H91.827V96.553H106.9Zm-18.29,0V96.553h2.237v1.872Zm2.237.964v10.49H88.612V99.389Zm-5.713-2.85h2.5v1.872h-2.5Zm0,2.868h2.5v10.472h-2.5Zm6.691,10.472V99.389H106.9v10.49Z" transform="translate(-75.978 -83.01)" fill="#0196fd"/>
  <path id="Path_88" data-name="Path 88" d="M182.045,203.381a.468.468,0,0,0-.444-.491h-1.727a.489.489,0,1,0,0,.978h1.68a.468.468,0,0,0,.491-.444C182.046,203.41,182.046,203.4,182.045,203.381Z" transform="translate(-158.748 -173.583)" fill="#0196fd"/>
  <path id="Path_89" data-name="Path 89" d="M169.92,203.66a.44.44,0,1,0,.44-.44h0a.435.435,0,0,0-.435.435Z" transform="translate(-150.759 -173.862)" fill="#0196fd"/>
  <path id="Path_90" data-name="Path 90" d="M82.181,47.333h5.329a.491.491,0,0,0,0-.983H82.181a.491.491,0,0,0,0,.983Z" transform="translate(-73.88 -41.458)" fill="#0196fd"/>
  <path id="Path_91" data-name="Path 91" d="M82.194,58.608h7.136a.489.489,0,1,0,0-.978H82.194a.489.489,0,1,0,0,.978Z" transform="translate(-73.893 -50.979)" fill="#0196fd"/>
  <path id="Path_92" data-name="Path 92" d="M138.1,58.4a.44.44,0,1,0-.44.44h0A.44.44,0,0,0,138.1,58.4Z" transform="translate(-120.749 -51.258)" fill="#0196fd"/>
  <path id="Path_94" data-name="Path 94" d="M200.05,202.363a27.927,27.927,0,0,0-5.947-2.279.575.575,0,0,0-.253,0,27.376,27.376,0,0,0-5.947,2.279.468.468,0,0,0-.22.468c.047.468.094.936.136,1.4.388,3.907.847,8.792,6.148,9.082h.051c5.446-.281,5.8-4.754,6.111-8.7.047-.608.094-1.212.159-1.792A.468.468,0,0,0,200.05,202.363Zm-.936,2.176c-.3,3.879-.594,7.547-5.147,7.8-4.408-.257-4.787-4.3-5.147-8.207-.033-.37-.07-.735-.108-1.1A29,29,0,0,1,194,201.067a28.737,28.737,0,0,1,5.287,1.965c-.061.491-.1,1-.14,1.507Z" transform="translate(-163.337 -171.203)" fill="#0196fd"/>
  <line id="Line_1" data-name="Line 1" x2="4.218" transform="translate(28.62 35.566)" fill="none" stroke="#119fda" stroke-linecap="round" stroke-width="2"/>
</svg>
